# xmcd
#
# Track frame offsets: 
#        150
#        76853
#        172155
#        249368
#
# Disc length: 4606 seconds
#
# Revision: 2
# Processed by: cddbd v1.5.2PL0 Copyright (c) Steve Scherf et al.
# Submitted via: ExactAudioCopy v0.99pb3
#
DISCID=2711fc04
DTITLE=Tangerine Dream - In Search Of Hades 12 of 18
DYEAR=2019
DGENRE=Electronic
TTITLE0=Ricochet: Part 1
TTITLE1=Ricochet: Part 2
TTITLE2=Ricochet: Part 1 [Steven Wilson Stereo Remix]
TTITLE3=Ricochet: Part 2 [Steven Wilson Stereo Remix]
EXTD=
EXTT0=
EXTT1=
EXTT2=
EXTT3=
PLAYORDER=
